<svg xmlns="http://www.w3.org/2000/svg" width="254" height="768"><defs><clipPath id="a"><path data-name="Rectangle 1712" fill="#fff" d="M0 0h254v768H0z"/></clipPath></defs><g data-name="Group 4865" clip-path="url(#a)"><g data-name="Group 106"><rect data-name="Rectangle 13" width="170" height="170" rx="41.661" transform="translate(511)" fill="#80af45"/><path data-name="Path 258" d="M596.147 123.19a38.027 38.027 0 0 0 38.028-38.026 38.027 38.027 0 0 0-38.028-38.027 38.025 38.025 0 0 0-38.026 38.026 38.025 38.025 0 0 0 38.026 38.027Z" fill="#fbd15b"/><path data-name="Rectangle 14" fill="#ea5454" d="M341 0h170v170H341z"/><path data-name="Path 259" d="M681.309 170.328h170.328A170.328 170.328 0 0 0 681.309 0Z" fill="#e9e5d9"/><path data-name="Rectangle 15" d="M170 0h171v170h-87.678A83.322 83.322 0 0 1 170 86.678V0Z" fill="#17c181"/><path data-name="Rectangle 16" d="M0 0h170v86.678A83.322 83.322 0 0 1 86.678 170H0V0Z" fill="#e9e5d9"/></g><g data-name="Group 107"><path data-name="Path 260" d="M681.309 340.656a170.329 170.329 0 0 0 170.328-170.328H681.309Z" fill="#80af45"/><path data-name="Path 261" d="M681.309 267.177a96.847 96.847 0 0 0 96.849-96.849h-96.849Z" fill="#fbd15b"/><path data-name="Rectangle 17" fill="#0a335b" d="M511 170h170v171H511z"/><path data-name="Rectangle 18" fill="#e9e5d9" d="M559.695 219.041h72.9v72.9h-72.9z"/><path data-name="Rectangle 19" fill="#e9e5d9" d="M341 170h170v171H341z"/><path data-name="Rectangle 20" d="M341 170h86.678A83.322 83.322 0 0 1 511 253.322V341H341V170Z" fill="#80af45"/><path data-name="Rectangle 21" d="M0 170h86.678A83.322 83.322 0 0 1 170 253.322V341H0V170Z" fill="#80af45"/><path data-name="Rectangle 22" d="M253.322 170H341v171H170v-87.678A83.322 83.322 0 0 1 253.322 170Z" fill="#fbd15b"/></g><g data-name="Group 108" transform="translate(0 256.319)"><path data-name="Rectangle 23" fill="#fbd15b" d="M511 84.681h170v170H511z"/><path data-name="Rectangle 24" fill="#f9fbfc" d="M341 84.681h170v170H341z"/><rect data-name="Rectangle 25" width="171" height="170" rx="41.661" transform="translate(681 84.681)" fill="#0a335b"/><path data-name="Path 262" d="M766.472 207.501a38 38 0 0 0 38-38 38 38 0 0 0-38-38 38 38 0 0 0-38 38 38 38 0 0 0 38 38Z" fill="#80af45"/><path data-name="Rectangle 26" fill="#f9fbfc" d="M170 84.681h171v170H170z"/><path data-name="Rectangle 27" d="M341 84.681h170v86.678a83.322 83.322 0 0 1-83.322 83.322H341v-170Z" fill="#ea5454"/><path data-name="Rectangle 28" d="M170 84.681h171v170h-87.678A83.322 83.322 0 0 1 170 171.359V84.681Z" fill="#637dff"/><path data-name="Path 263" d="M340.654 84.337h84.334A84.335 84.335 0 0 0 340.654.001Z" fill="#f9fbfc"/><path data-name="Rectangle 29" d="M297.575 0h43.08v84.336h-84.336v-43.08A41.256 41.256 0 0 1 297.575 0Z" fill="#80af45"/><path data-name="Path 264" d="M340.654 168.671a84.335 84.335 0 0 0 84.334-84.334h-84.334Z" fill="#fbd15b"/><path data-name="Path 265" d="M340.653 168.671V84.337h-84.334a84.335 84.335 0 0 0 84.334 84.334Z" fill="#0a335b"/><path data-name="Path 266" d="M0 254.663h170.327V84.337A170.326 170.326 0 0 0 0 254.663Z" fill="#0a335b"/></g><g data-name="Group 109"><path data-name="Path 267" d="M681.309 681.309a170.328 170.328 0 0 0 170.328-170.328H681.309Z" fill="#e9e5d9"/><path data-name="Rectangle 30" fill="#0a335b" d="M511 511h170v170H511z"/><path data-name="Path 268" d="M510.981 681.308h170.327L510.981 510.981Z" fill="#0a335b"/><path data-name="Rectangle 31" d="M424.322 511H511v170H341v-86.678A83.322 83.322 0 0 1 424.322 511Z" fill="#80af45"/><path data-name="Path 269" d="M0 681.309h170.327V510.981A170.328 170.328 0 0 0 0 681.309Z" fill="#fa9548"/><path data-name="Rectangle 32" d="M170 511h87.678A83.322 83.322 0 0 1 341 594.322V681H170V511Z" fill="#0a335b"/><path data-name="Rectangle 33" d="M170 511h87.678A83.322 83.322 0 0 1 341 594.322V681H170V511Z" fill="#ea5454"/><path data-name="Path 270" d="M63.348 681.309h106.98v-106.98a106.979 106.979 0 0 0-106.98 106.98Z" fill="#e9e5d9"/><path data-name="Rectangle 34" d="M170.327 574.329h54.647a52.333 52.333 0 0 1 52.333 52.333v54.647h-106.98v-106.98Z" fill="#80af45"/></g><g data-name="Group 110"><path data-name="Path 271" d="M681.309 851.637a170.327 170.327 0 0 1 170.328 170.326H681.309Z" fill="#80af45"/><path data-name="Path 272" d="M681.309 851.637v170.326H510.981a170.327 170.327 0 0 1 170.328-170.326Z" fill="#fbd15b"/><path data-name="Path 273" d="M681.309 923.538a98.425 98.425 0 0 1 98.427 98.425h-98.427Z" fill="#e9e5d9"/><path data-name="Path 274" d="M681.309 923.538v98.425h-98.427a98.425 98.425 0 0 1 98.427-98.425Z" fill="#f9fbfc"/><path data-name="Path 275" d="M510.98 851.637a170.325 170.325 0 0 1-170.325 170.326A170.325 170.325 0 0 1 510.98 851.637Z" fill="#ea5454"/><path data-name="Rectangle 35" fill="#0a335b" d="M0 852h170v170H0z"/><path data-name="Path 276" d="M170.328 851.637a170.327 170.327 0 0 1 170.327 170.326H170.328Z" fill="#80af45"/></g><path data-name="Path 277" d="M681.309 681.308a170.328 170.328 0 0 1-170.328 170.328 170.328 170.328 0 0 1 170.328-170.328Z" fill="#80af45"/><path data-name="Path 278" d="M340.655 681.308A170.326 170.326 0 0 1 510.98 851.636a170.327 170.327 0 0 1-170.325-170.328Z" fill="#fbd15b"/><path data-name="Rectangle 36" fill="#f9fbfc" d="M170 681h171v171H170z"/><path data-name="Path 279" d="M212.911 681.308a42.581 42.581 0 0 1 42.583 42.581 42.582 42.582 0 0 1-42.583 42.583 42.581 42.581 0 0 1-42.581-42.583 42.581 42.581 0 0 1 42.581-42.581Z" fill="#fbd15b"/><path data-name="Path 280" d="M212.912 713.813a10.077 10.077 0 0 1 10.078 10.076 10.077 10.077 0 0 1-10.078 10.078 10.079 10.079 0 0 1-10.078-10.078 10.078 10.078 0 0 1 10.078-10.076Z" fill="#f9fbfc"/><path data-name="Path 281" d="M298.073 681.308a42.583 42.583 0 0 1 42.583 42.581 42.583 42.583 0 0 1-42.583 42.583 42.582 42.582 0 0 1-42.581-42.583 42.581 42.581 0 0 1 42.581-42.581Z" fill="#e9e5d9"/><path data-name="Path 282" d="M298.072 713.813a10.077 10.077 0 0 1 10.078 10.076 10.077 10.077 0 0 1-10.078 10.078 10.077 10.077 0 0 1-10.078-10.078 10.077 10.077 0 0 1 10.078-10.076Z" fill="#0a335b"/><path data-name="Path 283" d="M212.911 766.472a42.581 42.581 0 0 1 42.583 42.581 42.582 42.582 0 0 1-42.583 42.583 42.582 42.582 0 0 1-42.581-42.583 42.581 42.581 0 0 1 42.581-42.581Z" fill="#0a335b"/><path data-name="Path 284" d="M212.912 798.977a10.077 10.077 0 0 1 10.078 10.076 10.077 10.077 0 0 1-10.078 10.075 10.079 10.079 0 0 1-10.078-10.078 10.078 10.078 0 0 1 10.078-10.073Z" fill="#fbd15b"/><rect data-name="Rectangle 37" width="86" height="86" rx="20.83" transform="translate(255 766)" fill="#80af45"/><path data-name="Path 285" d="M298.072 798.977a10.077 10.077 0 0 1 10.078 10.076 10.077 10.077 0 0 1-10.078 10.075 10.077 10.077 0 0 1-10.078-10.078 10.077 10.077 0 0 1 10.078-10.073Z" fill="#e9e5d9"/><path data-name="Rectangle 38" fill="#00CC90" d="M0 681h170v171H0z"/><path data-name="Rectangle 39" fill="#0a335b" d="M48.885 730.193h72.558v72.558H48.885z"/><g data-name="Group 112"><g data-name="Group 111" fill="#fbd15b"><path data-name="Path 286" d="M146.912 912.826a8.25 8.25 0 1 1 5.834-2.416 8.3 8.3 0 0 1-5.834 2.416"/><path data-name="Path 287" d="M61.847 912.826h-.041a8.25 8.25 0 1 1 0-16.5h.041a8.25 8.25 0 0 1 0 16.5Z"/><path data-name="Path 288" d="M104.389 912.826h-.041a8.25 8.25 0 0 1 0-16.5h.041a8.25 8.25 0 1 1 0 16.5Z"/><path data-name="Path 289" d="M19.285 912.826a8.249 8.249 0 1 1 5.834-2.416 8.3 8.3 0 0 1-5.834 2.416"/><path data-name="Path 290" d="M146.912 878.935a8.25 8.25 0 1 1 5.834-2.416 8.3 8.3 0 0 1-5.834 2.416"/><path data-name="Path 291" d="M61.847 878.935h-.041a8.25 8.25 0 1 1 0-16.5h.041a8.25 8.25 0 0 1 0 16.5Z"/><path data-name="Path 292" d="M104.389 878.935h-.041a8.25 8.25 0 0 1 0-16.5h.041a8.25 8.25 0 1 1 0 16.5Z"/><path data-name="Path 293" d="M19.285 878.935a8.249 8.249 0 1 1 5.834-2.416 8.3 8.3 0 0 1-5.834 2.416"/><path data-name="Path 294" d="M146.912 946.717a8.249 8.249 0 1 1 5.834-2.416 8.311 8.311 0 0 1-5.834 2.416"/><path data-name="Path 295" d="M61.847 946.717h-.041a8.25 8.25 0 1 1 0-16.5h.041a8.25 8.25 0 0 1 0 16.5Z"/><path data-name="Path 296" d="M104.389 946.717h-.041a8.25 8.25 0 0 1 0-16.5h.041a8.25 8.25 0 1 1 0 16.5Z"/><path data-name="Path 297" d="M19.285 946.717a8.249 8.249 0 1 1 5.834-2.416 8.311 8.311 0 0 1-5.834 2.416"/><path data-name="Path 298" d="M146.912 980.608a8.253 8.253 0 1 1 5.834-2.418 8.3 8.3 0 0 1-5.834 2.418"/><path data-name="Path 299" d="M61.847 980.608h-.041a8.25 8.25 0 1 1 0-16.5h.041a8.25 8.25 0 0 1 0 16.5Z"/><path data-name="Path 300" d="M104.389 980.608h-.041a8.25 8.25 0 0 1 0-16.5h.041a8.25 8.25 0 1 1 0 16.5Z"/><path data-name="Path 301" d="M19.285 980.608a8.253 8.253 0 1 1 5.834-2.418 8.3 8.3 0 0 1-5.834 2.418"/><path data-name="Path 302" d="M146.912 1014.499a8.253 8.253 0 1 1 5.834-2.418 8.3 8.3 0 0 1-5.834 2.418"/><path data-name="Path 303" d="M61.847 1014.499h-.041a8.251 8.251 0 0 1 0-16.5h.041a8.251 8.251 0 0 1 0 16.5Z"/><path data-name="Path 304" d="M104.389 1014.499h-.041a8.251 8.251 0 0 1 0-16.5h.041a8.251 8.251 0 1 1 0 16.5Z"/><path data-name="Path 305" d="M19.285 1014.499a8.253 8.253 0 1 1 5.834-2.418 8.3 8.3 0 0 1-5.834 2.418"/></g></g><g data-name="Group 113" fill="#f9fbfc"><path data-name="Path 306" d="M660.068 401.975a8.25 8.25 0 1 1 5.834-2.416 8.3 8.3 0 0 1-5.834 2.416"/><path data-name="Path 307" d="M575.003 401.975h-.041a8.25 8.25 0 0 1 0-16.5h.041a8.25 8.25 0 1 1 0 16.5Z"/><path data-name="Path 308" d="M617.545 401.975h-.041a8.25 8.25 0 1 1 0-16.5h.041a8.25 8.25 0 0 1 0 16.5Z"/><path data-name="Path 309" d="M532.44 401.975a8.25 8.25 0 1 1 5.834-2.416 8.3 8.3 0 0 1-5.834 2.416"/><path data-name="Path 310" d="M660.068 368.084a8.249 8.249 0 1 1 5.834-2.416 8.3 8.3 0 0 1-5.834 2.416"/><path data-name="Path 311" d="M575.003 368.084h-.041a8.25 8.25 0 0 1 0-16.5h.041a8.25 8.25 0 1 1 0 16.5Z"/><path data-name="Path 312" d="M617.545 368.084h-.041a8.25 8.25 0 1 1 0-16.5h.041a8.25 8.25 0 0 1 0 16.5Z"/><path data-name="Path 313" d="M532.44 368.084a8.25 8.25 0 1 1 5.834-2.416 8.3 8.3 0 0 1-5.834 2.416"/><path data-name="Path 314" d="M660.068 435.866a8.25 8.25 0 1 1 5.834-2.416 8.307 8.307 0 0 1-5.834 2.416"/><path data-name="Path 315" d="M575.003 435.866h-.041a8.25 8.25 0 1 1 0-16.5h.041a8.25 8.25 0 1 1 0 16.5Z"/><path data-name="Path 316" d="M617.545 435.866h-.041a8.25 8.25 0 1 1 0-16.5h.041a8.25 8.25 0 1 1 0 16.5Z"/><path data-name="Path 317" d="M532.44 435.866a8.25 8.25 0 1 1 5.834-2.416 8.307 8.307 0 0 1-5.834 2.416"/><path data-name="Path 318" d="M660.068 469.757a8.253 8.253 0 1 1 5.834-2.418 8.3 8.3 0 0 1-5.834 2.418"/><path data-name="Path 319" d="M575.003 469.757h-.041a8.25 8.25 0 1 1 0-16.5h.041a8.25 8.25 0 1 1 0 16.5Z"/><path data-name="Path 320" d="M617.545 469.757h-.041a8.25 8.25 0 1 1 0-16.5h.041a8.25 8.25 0 1 1 0 16.5Z"/><path data-name="Path 321" d="M532.44 469.757a8.253 8.253 0 1 1 5.834-2.418 8.3 8.3 0 0 1-5.834 2.418"/><path data-name="Path 322" d="M660.068 503.646a8.249 8.249 0 1 1 5.834-2.416 8.3 8.3 0 0 1-5.834 2.416"/><path data-name="Path 323" d="M575.003 503.646h-.041a8.25 8.25 0 0 1 0-16.5h.041a8.25 8.25 0 1 1 0 16.5Z"/><path data-name="Path 324" d="M617.545 503.646h-.041a8.25 8.25 0 1 1 0-16.5h.041a8.25 8.25 0 0 1 0 16.5Z"/><path data-name="Path 325" d="M532.44 503.646a8.25 8.25 0 1 1 5.834-2.416 8.3 8.3 0 0 1-5.834 2.416"/></g></g></svg>